<svg xmlns="http://www.w3.org/2000/svg" width="15" height="15"><path style="stroke:none;fill-rule:nonzero;fill:#294172;fill-opacity:1" d="M14.98 7.5A7.484 7.484 0 0 0 7.5.02 7.483 7.483 0 0 0 .02 7.496v5.785c.003.938.765 1.7 1.703 1.7h5.78A7.483 7.483 0 0 0 14.98 7.5"/><path style="fill:none;stroke-width:29.21;stroke-linecap:butt;stroke-linejoin:miter;stroke:#3c6eb4;stroke-opacity:1;stroke-miterlimit:4" d="M77.11 142.122h47.838v47.837c0 26.422-21.416 47.838-47.838 47.838s-47.837-21.416-47.837-47.838 21.415-47.837 47.837-47.837zm0 0" transform="rotate(.153) scale(.05618)"/><path style="fill:none;stroke-width:29.21;stroke-linecap:butt;stroke-linejoin:miter;stroke:#3c6eb4;stroke-opacity:1;stroke-miterlimit:4" d="M77.135 142.097h47.837v47.837c0 26.422-21.415 47.838-47.837 47.838-26.422 0-47.838-21.416-47.838-47.838s21.416-47.837 47.838-47.837zm0 0" transform="rotate(179.847 7.014 7.986) scale(.05618)"/><path style="stroke:none;fill-rule:nonzero;fill:#fff;fill-opacity:1" d="M7.844 7.164v3.504a3.51 3.51 0 0 1-3.512 3.508 2.8 2.8 0 0 1-.773-.102c-.399-.105-.723-.43-.723-.808 0-.457.332-.793.828-.793.238 0 .324.047.668.047a1.856 1.856 0 0 0 1.856-1.848V9.059a.258.258 0 0 0-.262-.258l-1.219-.004a.814.814 0 0 1-.82-.817c0-.457.37-.816.828-.816"/><path style="stroke:none;fill-rule:nonzero;fill:#fff;fill-opacity:1" d="M6.188 8.809V5.305a3.51 3.51 0 0 1 3.507-3.512c.293 0 .504.035.778.105.394.106.718.43.718.809 0 .457-.332.79-.828.79-.234 0-.32-.044-.668-.044a1.847 1.847 0 0 0-1.851 1.848v1.61c0 .144.117.26.261.26H9.32a.82.82 0 1 1-.008 1.637"/></svg>