<svg width="15" height="15" xmlns:xlink="http://www.w3.org/1999/xlink" xmlns="http://www.w3.org/2000/svg"><defs><linearGradient id="d" gradientUnits="userSpaceOnUse" x1="17.382" y1="26.933" x2="17.032" y2="13.634" gradientTransform="scale(.46875)"><stop offset="0" style="stop-color:#fcfcfc;stop-opacity:1"/><stop offset="1" style="stop-color:#eff0f1;stop-opacity:1"/></linearGradient><linearGradient id="e" gradientUnits="userSpaceOnUse" x1="10" y1="30" x2="10" y2="20.999" gradientTransform="scale(.46875)"><stop offset="0" style="stop-color:#f39c1f;stop-opacity:1"/><stop offset="1" style="stop-color:#fdbc4b;stop-opacity:1"/></linearGradient><linearGradient id="f" gradientUnits="userSpaceOnUse" x1="22.778" y1="29.541" x2="22.645" y2="22.641" gradientTransform="scale(.46875)"><stop offset="0" style="stop-color:#f39c1f;stop-opacity:1"/><stop offset="1" style="stop-color:#fdbc4b;stop-opacity:1"/></linearGradient><linearGradient id="c" gradientUnits="userSpaceOnUse" x1="13.167" y1="10.613" x2="16.667" y2="14.113" gradientTransform="scale(.46875)"><stop offset="0" style="stop-color:#000;stop-opacity:1"/><stop offset="1" style="stop-color:#000;stop-opacity:0"/></linearGradient><linearGradient id="i" gradientUnits="userSpaceOnUse" x1="16" y1="12" x2="15.731" y2="8.152" gradientTransform="scale(.46875)"><stop offset="0" style="stop-color:#f39c1f;stop-opacity:1"/><stop offset="1" style="stop-color:#fdbc4b;stop-opacity:1"/></linearGradient><clipPath id="b"><path d="M0 0h15v15H0z"/></clipPath><filter id="a" filterUnits="objectBoundingBox" x="0" y="0" width="1" height="1"><feColorMatrix in="SourceGraphic" values="0 0 0 0 1 0 0 0 0 1 0 0 0 0 1 0 0 0 1 0"/></filter><mask id="h"><g filter="url(#a)"><path style="fill:#000;fill-opacity:.2;stroke:none" d="M0 0h15v15H0z"/></g></mask><g id="g" clip-path="url(#b)"><path style="stroke:none;fill-rule:nonzero;fill:url(#c)" d="M8.906 4.406 10.47 5.97 8.28 7.086l-2.11-2.11"/></g></defs><path style="display:inline;fill:#1a1a1a;fill-rule:nonzero;stroke:none" d="M5.918 4.898c.168-.668.008-1.378.031-2.066C6 1.328 6.836.984 7.691.942c.985-.051 2.145.53 2.215 1.949.035.68-.086 1.382.09 2.039.41 1.53 2.16 2.64 2.188 4.222.023 1.508-.672 3.286-1.954 4.078-.66.41-1.554-.082-2.332-.027-.863.059-1.824.824-2.57.383-1.351-.805-1.726-2.863-1.625-4.434.102-1.593 1.824-2.703 2.215-4.254zm0 0"/><path style="stroke:none;fill-rule:nonzero;fill:#fcfcfc;fill-opacity:.941176" d="M9.02 3.648c0-.496-.313-.898-.696-.898-.383 0-.695.402-.695.898 0 .497.312.899.695.899.383 0 .696-.402.696-.899zM7.172 3.68c0-.407-.223-.73-.492-.73-.27 0-.492.323-.492.73 0 .402.222.73.492.73s.492-.328.492-.73zm0 0"/><path style="stroke:none;fill-rule:nonzero;fill:#232629;fill-opacity:1" d="M8.523 3.793c0-.258-.128-.469-.285-.469-.156 0-.285.211-.285.469 0 .262.129.473.285.473.157 0 .285-.211.285-.473zM6.898 3.793c0-.191-.097-.348-.214-.348-.122 0-.22.157-.22.348 0 .195.098.352.22.352.117 0 .214-.157.214-.352zm0 0"/><path style="stroke:none;fill-rule:nonzero;fill:url(#d)" d="M8.234 4.574a2.837 2.837 0 0 0-.257 0c-.575.035-1.192.262-1.504.535-.5.442-.203.868-.422 1.485-.215.617-.754 1.422-.918 2.191-.067.313-.149.625-.207.934l1.547 1.886c.3.372-.489.235-1.227-.242.524.735 1.559 1.461 2.582 1.395 1.09-.074 2.375-1.215 2.79-2.145-.403-.066-.79-.668-.47-1.117.11-.156.348-.168.555-.137-.125-.476-.371-.902-.492-1.261-.215-.625-.465-.801-.691-1.36-.227-.554.015-1.582-.625-1.984-.18-.113-.41-.168-.66-.18zm0 0"/><path style="stroke:none;fill-rule:nonzero;fill:url(#e)" d="M3.438 10.484c.226-.183.335-.554.62-.62.223-.052.473.073.649.222.402.332.465.941.785 1.36.211.273.57.433.738.738.172.316.399.738.235 1.062-.219.438-.856.57-1.344.59-.297.012-.555-.215-.844-.293-.414-.117-.898-.047-1.27-.266-.292-.175-.64-.441-.663-.785-.008-.133.187-.207.222-.34.086-.343-.246-.746-.09-1.062.169-.34.665-.371.962-.606zm0 0"/><path style="stroke:none;fill-rule:nonzero;fill:url(#f)" d="M10.047 9.969a1.123 1.123 0 0 0-.235.297c-.25.457-.082 1.05-.222 1.554-.094.332-.371.614-.414.957-.043.364-.098.836.176 1.078.367.32 1.007.211 1.468.051.278-.101.434-.406.672-.586.344-.265.817-.375 1.082-.718.207-.274.434-.649.328-.973-.043-.129-.254-.125-.332-.234-.21-.29-.047-.786-.312-1.02-.195-.176-.485-.156-.766-.164-.137.289-.574.484-.875.402-.258-.07-.512-.363-.57-.644zm0 0"/><use xlink:href="#g" mask="url(#h)"/><path style="stroke:none;fill-rule:nonzero;fill:url(#i)" d="M7.375 3.82c.309-.015.594.184.871.317.27.133.73.172.766.468.047.336-.43.536-.707.73-.246.177-.524.38-.828.376-.305-.004-.575-.223-.829-.399-.203-.144-.53-.277-.539-.53-.007-.27.325-.442.54-.606.214-.164.456-.34.726-.356zm0 0"/><path style="stroke:none;fill-rule:nonzero;fill:#eff0f1;fill-opacity:.12549" d="M4.23 9.855a.505.505 0 0 0-.171.008c-.286.067-.395.438-.622.621-.296.235-.792.266-.96.606-.07.14-.04.3.003.46.176-.331.665-.363.958-.597.226-.183.335-.555.62-.621.223-.05.473.074.649.223.402.332.465.941.785 1.36.211.273.57.429.738.737.09.164.192.36.25.555.13-.32-.082-.719-.25-1.023-.168-.305-.527-.465-.738-.739-.32-.418-.383-1.027-.785-1.36-.133-.108-.305-.21-.477-.23zm-1.699 2.36c-.066.094-.195.168-.187.277.008.106.05.2.105.285.051-.047.102-.093.117-.156.032-.129 0-.266-.035-.406zm7.516-2.246a1.123 1.123 0 0 0-.235.297c-.25.457-.082 1.05-.222 1.554-.094.336-.371.614-.414.957a2.756 2.756 0 0 0-.016.649c.004-.063.012-.125.016-.18.043-.344.32-.625.414-.957.14-.504-.027-1.098.223-1.555.058-.105.136-.21.234-.296.058.28.312.574.57.644.301.082.742-.113.875-.402.281.008.57-.012.766.164.265.234.101.73.312 1.02.07.097.239.109.305.198a.72.72 0 0 0 .027-.433c-.043-.129-.254-.125-.332-.234-.21-.29-.047-.786-.312-1.02-.195-.176-.485-.156-.766-.164-.133.289-.574.484-.875.402-.258-.07-.512-.363-.57-.644zm0 0"/></svg>