<svg xmlns="http://www.w3.org/2000/svg" width="15" height="15"><path style="stroke:none;fill-rule:nonzero;fill:#fff;fill-opacity:1" d="M15 7.5c0 4.14-3.36 7.5-7.5 7.5C3.36 15 0 11.64 0 7.5 0 3.36 3.36 0 7.5 0 11.64 0 15 3.36 15 7.5zm0 0"/><path style="stroke:none;fill-rule:nonzero;fill:#d70751;fill-opacity:1" d="M13.828 7.5A6.327 6.327 0 0 1 7.5 13.828 6.327 6.327 0 0 1 1.172 7.5 6.327 6.327 0 0 1 7.5 1.172 6.327 6.327 0 0 1 13.828 7.5zm0 0"/><path style="stroke:none;fill-rule:nonzero;fill:#f8f8f8;fill-opacity:1" d="M3.398 3.691v5.274a2.35 2.35 0 0 0 2.344 2.344h3.516a2.35 2.35 0 0 0 2.344-2.344v-2.93a1.77 1.77 0 0 0-1.758-1.758c-.434 0-.852.164-1.172.465A1.765 1.765 0 0 0 7.5 4.277a1.77 1.77 0 0 0-1.758 1.758v2.93h1.172v-2.93c0-.324.266-.586.586-.586.32 0 .586.262.586.586v2.93h1.172v-2.93c0-.324.265-.586.586-.586.32 0 .586.262.586.586v2.93a1.162 1.162 0 0 1-1.157 1.172H5.742A1.166 1.166 0 0 1 4.57 8.984V3.691zm0 0"/></svg>